<svg xmlns="http://www.w3.org/2000/svg" width="16" height="12" viewBox="0 0 16 12">
  <g id="_01_align_center" data-name="01 align center" transform="translate(0 -3)">
    <path id="Path_3601" data-name="Path 3601" d="M15.881,8.454h0C15.3,7.174,13,3,8,3S.7,7.174.119,8.454a1.313,1.313,0,0,0,0,1.093C.7,10.826,3,15,8,15s7.3-4.174,7.881-5.454A1.312,1.312,0,0,0,15.881,8.454ZM8,13.667c-4.2,0-6.167-3.577-6.667-4.659C1.833,7.911,3.8,4.333,8,4.333S14.158,7.9,14.667,9C14.158,10.1,12.2,13.667,8,13.667Z" fill="#193948"/>
    <path id="Path_3602" data-name="Path 3602" d="M10.345,7a3.324,3.324,0,1,0,3.345,3.324A3.335,3.335,0,0,0,10.345,7Zm0,5.318a1.994,1.994,0,1,1,2.007-1.994A2,2,0,0,1,10.345,12.318Z" transform="translate(-2.345 -1.324)" fill="#193948"/>
  </g>
</svg>
