<svg width="18" height="17" viewBox="0 0 18 17" fill="none" xmlns="http://www.w3.org/2000/svg">
<path d="M13.8958 5.83333L12.9792 3.83333L10.9792 2.91667L12.9792 2L13.8958 0L14.8125 2L16.8125 2.91667L14.8125 3.83333L13.8958 5.83333ZM15.5625 11.6667L14.8958 10.25L13.4792 9.58333L14.8958 8.91667L15.5625 7.5L16.2292 8.91667L17.6458 9.58333L16.2292 10.25L15.5625 11.6667ZM4.72917 16.6667L4.47917 14.7083C4.38194 14.6667 4.27778 14.6111 4.16667 14.5417C4.05556 14.4722 3.96528 14.4028 3.89583 14.3333L2.0625 15.125L0 11.5L1.5625 10.3333C1.5625 10.2222 1.5625 10.1111 1.5625 10C1.5625 9.88889 1.5625 9.77778 1.5625 9.66667L0 8.5L2.0625 4.875L3.89583 5.66667C3.96528 5.59722 4.05556 5.52778 4.16667 5.45833C4.27778 5.38889 4.38194 5.33333 4.47917 5.29167L4.72917 3.33333H8.89583L9.14583 5.29167C9.24306 5.33333 9.34722 5.38889 9.45833 5.45833C9.56944 5.52778 9.65972 5.59722 9.72917 5.66667L11.5625 4.875L13.625 8.5L12.0625 9.66667C12.0625 9.77778 12.0625 9.88889 12.0625 10C12.0625 10.1111 12.0625 10.2222 12.0625 10.3333L13.625 11.5L11.5625 15.125L9.72917 14.3333C9.65972 14.4028 9.56944 14.4722 9.45833 14.5417C9.34722 14.6111 9.24306 14.6667 9.14583 14.7083L8.89583 16.6667H4.72917ZM6.8125 12.5C7.50694 12.5 8.09722 12.2569 8.58333 11.7708C9.06944 11.2847 9.3125 10.6944 9.3125 10C9.3125 9.30556 9.06944 8.71528 8.58333 8.22917C8.09722 7.74306 7.50694 7.5 6.8125 7.5C6.11806 7.5 5.52778 7.74306 5.04167 8.22917C4.55556 8.71528 4.3125 9.30556 4.3125 10C4.3125 10.6944 4.55556 11.2847 5.04167 11.7708C5.52778 12.2569 6.11806 12.5 6.8125 12.5ZM6.1875 15H7.4375L7.60417 13.5C8.00694 13.3889 8.35069 13.2465 8.63542 13.0729C8.92014 12.8993 9.20139 12.6667 9.47917 12.375L10.8542 13L11.4375 11.9583L10.2292 11.0417C10.3403 10.7222 10.3958 10.375 10.3958 10C10.3958 9.625 10.3403 9.27778 10.2292 8.95833L11.4375 8.04167L10.8542 7L9.47917 7.625C9.20139 7.33333 8.92014 7.10069 8.63542 6.92708C8.35069 6.75347 8.00694 6.61111 7.60417 6.5L7.4375 5H6.1875L6.02083 6.5C5.61806 6.61111 5.27431 6.75347 4.98958 6.92708C4.70486 7.10069 4.42361 7.33333 4.14583 7.625L2.77083 7L2.1875 8.04167L3.39583 8.95833C3.28472 9.27778 3.22569 9.625 3.21875 10C3.21181 10.375 3.27083 10.7222 3.39583 11.0417L2.1875 11.9583L2.77083 13L4.14583 12.375C4.42361 12.6667 4.70486 12.8993 4.98958 13.0729C5.27431 13.2465 5.61806 13.3889 6.02083 13.5L6.1875 15Z" fill="#0027B7"/>
</svg>
