<svg xmlns="http://www.w3.org/2000/svg" width="40" height="48" viewBox="0 0 40 48">
  <path id="shield-check_1_" data-name="shield-check (1)" d="M37.888,5.275,22,.009,6.112,5.275A6,6,0,0,0,2,10.971v13.02C2,39.039,20.4,47.349,21.188,47.7l.708.314.736-.244C23.424,47.5,42,41.145,42,23.991V10.971a6,6,0,0,0-4.113-5.7Zm-15,22.694a3.746,3.746,0,0,1-2.67,1.106h-.066a3.744,3.744,0,0,1-2.69-1.2l-4.612-4.8,2.886-2.764,4.488,4.68L30.586,14.629l2.828,2.828Z" transform="translate(-2 -0.009)" fill="#fcdc73"/>
</svg>
